#!OML:ASF F:\VICON\USERDATA\INSTALL\rory3\rory3.ASF
:FULLY-SPECIFIED
:DEGREES
154
root 0.5960593087590903 17.930429625967903 27.077209357400164 3.522166419084564 -6.56553482474881 -3.7711299947047126
lfemur -24.141473106942883 5.848685517539781 -16.683178213468672
ltibia 86.57341392936485
lfoot 13.127392312855509 -9.869372301149241
ltoes -28.65368020998188
rfemur -11.76673028178259 6.1561536811580435 31.216557865529328
rtibia 73.26633028064697
rfoot 5.009779249293496 -8.779801972669098
rtoes 7.799095555721591
lowerback 14.350824092193797 1.9478550020418979 2.6025796665188103
upperback -0.8554076549010289 3.045317949722377 0.9739458496479849
thorax -9.201933007227566 1.494721433830777 -0.8226847693912511
lowerneck -18.17530194973935 -4.635816606338678 -2.457120583087133
upperneck 8.518535424603908 -6.473844586746318 5.712776143956809
head 6.495663736744402 -2.6484310500517925 1.4962279666431408
lclavicle -1.3367475555228593e-15 -2.7589793148629128e-15
lhumerus -45.45804446965379 -8.077291080608262 90.51206470441083
lradius 114.26682309315194
lwrist 30.9728164766876
lhand -22.539937855256394 4.008278119541112
lfingers 7.12502
lthumb 4.170224077113541 33.71746080202732
rclavicle -1.3367475554763516e-15 -2.7589793148306058e-15
rhumerus -53.861714100693305 11.206435159446352 -97.22379676773626
rradius 115.05912036848594
rwrist -23.173644289165935
rhand -18.75552972003359 43.076832023038676
rfingers 7.12502
rthumb 6.644410651346009 12.990907032070332
155
root 0.5875851053592129 17.922915683107554 26.888513255060857 3.474059246826217 -6.582821267135368 -3.792215266234806
lfemur -24.18010195543944 5.774561077757818 -16.789683634543582
ltibia 85.42101171298867
lfoot 13.428260719379502 -10.065442075608487
ltoes -29.502317396212568
rfemur -11.874391208152133 6.223706238802192 31.171721238476685
rtibia 73.39954887603758
rfoot 5.357381763401959 -8.613571247984387
rtoes 4.3638203635506425
lowerback 14.433829791529584 1.9764770995978376 2.6249716018479985
upperback -0.8762553704135474 3.1191623004057987 1.0721640946789965
thorax -9.172353410864844 1.5356322904801551 -0.8806274937824288
lowerneck -17.967880826650852 -4.729127375360771 -2.463526202164811
upperneck 8.593681687527562 -6.620680118137024 5.719072951545881
head 6.508848319926562 -2.7213960221677946 1.4944944556776394
lclavicle -1.336747555527413e-15 -2.7589793148666117e-15
lhumerus -45.81241548093246 -8.175133752289703 90.50146992526139
lradius 113.71904318737016
lwrist 31.04599981549564
lhand -22.378437903458185 3.849839570144547
lfingers 7.12502
lthumb 4.463249802183741 33.831206667188034
rclavicle -1.3367475554744777e-15 -2.758979314829266e-15
rhumerus -54.14826135636942 11.03085406598948 -97.09951779089718
rradius 115.19248295997248
rwrist -23.089102072055322
rhand -18.99679836466204 43.23773396386529
rfingers 7.12502
rthumb 6.515838553222724 13.441984057150759
156
root 0.5896412147575346 17.918469483295947 27.075359320385616 3.4304690207050013 -6.543137941301109 -3.762948552475486
lfemur -24.158427107232903 5.66837743779017 -16.95810894316911
ltibia 84.24082776477516
lfoot 13.018447129381817 -10.446285174625027
ltoes -30.295598911949195
rfemur -11.927520787729861 6.141560499662975 31.095504434424193
rtibia 73.60169410167543
rfoot 5.830864959380046 -8.476632882185783
rtoes 3.7879133633115445
lowerback 14.436963937642282 1.9917640276447575 2.6394545019255666
upperback -0.8229726036304179 3.142589329546224 1.0855614345794562
thorax -9.010087631261174 1.5493893782424935 -0.9276491622805509
lowerneck -17.84166900803107 -4.8563728781292745 -2.5001968900924365
upperneck 8.660258200855266 -6.789249522895981 5.748126879187962
head 6.5409171649455455 -2.7994795720798122 1.4951702569191163
lclavicle -1.3367475555248372e-15 -2.7589793148649098e-15
lhumerus -45.78875648376153 -8.29213153910414 90.56333242744032
lradius 113.13199639847225
lwrist 31.02563258745401
lhand -22.13788518830372 3.5749098174896545
lfingers 7.12502
lthumb 4.518566375694054 33.516670860309084
rclavicle -1.336747555475766e-15 -2.7589793148305908e-15
rhumerus -54.36876793033007 10.852321705201529 -96.94056851593487
rradius 115.31412340874209
rwrist -23.103590053031382
rhand -19.17076160118912 43.454325264163714
rfingers 7.12502
rthumb 6.447845071038944 13.780608011248034
157
root 0.5908454780786437 17.927019430521252 27.133461402600197 3.4299361424384993 -6.441085128341151 -3.7561493152083543
lfemur -24.117695386287373 5.513019923273951 -17.108974944544883
ltibia 83.02246148539977
lfoot 13.3937841087261 -10.112721326842609
ltoes -29.577248185566873
rfemur -11.98903154473466 6.021359903895201 31.021925930171783
rtibia 73.71260122048864
rfoot 6.463805294850761 -8.331925377706868
rtoes 4.098103691160199
lowerback 14.408277328101216 1.9944690924384378 2.6705976367822735
upperback -0.8078931140031412 3.1770483566924246 1.1175843724376449
thorax -8.920099511056042 1.5575281824476628 -0.9662477627978985
lowerneck -17.69940583872542 -4.97277202268832 -2.5089040873929
upperneck 8.702314027067924 -6.955264732471547 5.777282868280475
head 6.514705836504049 -2.8830826460884245 1.4980845769312452
lclavicle -1.3367475555280776e-15 -2.758979314867268e-15
lhumerus -45.852257730077284 -8.471469186935607 90.6304385469072
lradius 112.4781556521694
lwrist 31.019296034035538
lhand -22.37444647855831 3.190751265175505
lfingers 7.12502
lthumb 4.405540897203881 33.2954354916698
rclavicle -1.3367475554764323e-15 -2.75897931483093e-15
rhumerus -54.625088596693615 10.596397600287519 -96.76039381902675
rradius 115.47567125094228
rwrist -23.05725213462806
rhand -19.25840840703845 43.61745466479542
rfingers 7.12502
rthumb 6.381298549313559 13.813120927066011
158
root 0.6184541872747162 17.941213637944763 27.481320756818093 3.469443070979523 -6.212776339283427 -3.6888227987017954
lfemur -24.039470480371413 5.254440926527973 -17.3466217696753
ltibia 81.7640637060112
lfoot 12.74639537143068 -9.91093265936466
ltoes -29.917662741318864
rfemur -12.000824145227796 5.734849319931153 30.879103420530402
rtibia 73.82223365527808
rfoot 6.773016796685022 -7.941665793028578
rtoes 2.650822222201936
lowerback 14.216870817266392 1.9700406383580855 2.741820522864799
upperback -0.8097063220384975 3.135479727691882 1.0748891789951778
thorax -8.607011163416436 1.5574128982102304 -1.0363138233653848
lowerneck -17.615233848264687 -5.100323774900131 -2.5088208075671923
upperneck 8.739122195102512 -7.146848424923323 5.823118709988813
head 6.4766748150786775 -2.9773101412694785 1.5063762638960159
lclavicle -1.336747555529332e-15 -2.7589793148680794e-15
lhumerus -45.96199206386898 -8.645745842476124 90.64332793608003
lradius 111.81637578992327
lwrist 30.997702695230362
lhand -22.474883042232626 3.1865183252551708
lfingers 7.12502
lthumb 4.405570277724146 33.24421088325604
rclavicle -1.3367475554778682e-15 -2.7589793148318833e-15
rhumerus -54.92759562972108 10.31300734301086 -96.62135520999189
rradius 115.62489461899898
rwrist -23.06098505097412
rhand -19.295517442112885 43.65610571070087
rfingers 7.12502
rthumb 6.337463558459131 13.737944763668972
